
        <svg xmlns="http://www.w3.org/2000/svg" xmlns:xlink="http://www.w3.org/1999/xlink" version="1.1" width="3162.1621621621625" 
        height="825.5717577269039" viewBox="0 0 3162.1621621621625 825.5717577269039">
			<rect fill="#264e86" width="3162.1621621621625" height="825.5717577269039"/>
			<g transform="scale(8.108108108108109) translate(10, 10)">
				<defs id="SvgjsDefs1016"></defs><g id="SvgjsG1017" featureKey="FRM3ZD-0" transform="matrix(6.410256253505211,0,0,6.410256253505211,1.7948707270042537,-48.43588832865279)" fill="#ffffff"><path d="M5.8 9.74 c0.44 0 0.87334 0.05 1.3 0.15 s0.82666 0.25666 1.2 0.47 l0 9.34 c-0.37334 0.21334 -0.77334 0.37 -1.2 0.47 s-0.86 0.15 -1.3 0.15 c-0.73334 0 -1.42 -0.14 -2.06 -0.42 s-1.2 -0.66 -1.68 -1.14 s-0.86 -1.04 -1.14 -1.68 s-0.42 -1.32 -0.42 -2.04 c0 -0.73334 0.14 -1.42 0.42 -2.06 s0.66 -1.2 1.14 -1.68 s1.04 -0.86 1.68 -1.14 s1.3267 -0.42 2.06 -0.42 z "></path></g><g id="SvgjsG1018" featureKey="vMvB0T-0" transform="matrix(2.4213774047141783,0,0,2.4213774047141783,67.91906759887956,16.21449265648038)" fill="#ffffff"><path d="M8.0762 20.19531 c-4.1504 0 -7.2168 -2.8223 -7.2168 -7.2559 s3.0664 -7.2461 7.2168 -7.2461 c3.1445 0 5.6641 1.6113 6.6699 4.2871 l-2.7344 0.99609 c-0.625 -1.6406 -2.1191 -2.5879 -3.9355 -2.5879 c-2.4316 0 -4.2969 1.6992 -4.2969 4.5508 s1.8652 4.5605 4.2969 4.5605 c1.8164 0 3.3105 -0.95703 3.9355 -2.5977 l2.7344 0.99609 c-1.0059 2.6758 -3.5254 4.2969 -6.6699 4.2969 z M23.398465625 20.19531 c-4.1504 0 -7.2168 -2.832 -7.2168 -7.2559 c0 -4.4336 3.0664 -7.2461 7.2168 -7.2461 c4.1406 0 7.207 2.8125 7.207 7.2461 c0 4.4238 -3.0664 7.2559 -7.207 7.2559 z M23.398465625 17.5098 c2.4316 0 4.2969 -1.709 4.2969 -4.5703 c0 -2.8516 -1.8652 -4.5508 -4.2969 -4.5508 s-4.2969 1.6992 -4.2969 4.5508 c0 2.8613 1.8652 4.5703 4.2969 4.5703 z M33.300809375 20 l0 -14.111 l2.9297 0 l0 14.111 l-2.9297 0 z M49.511875 5.888999999999999 l2.9199 0 l0 14.111 l-3.3887 0 l-6.25 -10.088 l0 10.088 l-2.9199 0 l0 -14.111 l3.3496 0 l6.2891 10.029 l0 -10.029 z M55.6836125 15.976600000000001 l0 -2.3535 l7.002 0 l0 2.3535 l-7.002 0 z M70.625028125 20.19531 c-3.0273 0 -5.3906 -1.4551 -5.8203 -4.1016 l3.0273 -0.69336 c0.19531 1.582 1.3574 2.4023 2.9102 2.4023 c1.1914 0 2.1387 -0.52734 2.1289 -1.7188 c-0.0097656 -1.3281 -1.5723 -1.748 -3.291 -2.2754 c-2.0703 -0.64453 -4.2871 -1.4063 -4.2871 -4.0039 c0 -2.627 2.1484 -4.1113 4.9805 -4.1113 c2.4805 0 4.9805 1.0059 5.5469 3.7109 l-2.832 0.70313 c-0.26367 -1.4063 -1.2109 -2.0215 -2.5391 -2.0215 c-1.1816 0 -2.1875 0.48828 -2.1875 1.6504 c0 1.084 1.3867 1.4453 2.9883 1.9238 c2.1289 0.64453 4.6484 1.4648 4.6484 4.2773 c0 2.998 -2.5098 4.2578 -5.2734 4.2578 z M80.89844375 20 l-3.6914 -14.111 l3.0469 0 l2.7539 10.684 l3.1543 -10.684 l2.4707 0 l3.1348 10.684 l2.7832 -10.684 l3.0371 0 l-3.6914 14.111 l-3.7695 0 l-2.7344 -8.7207 l-2.7246 8.7207 l-3.7695 0 z M109.287578125 20 l-1.0254 -2.9102 l-5.9277 0 l-1.0254 2.9102 l-2.998 0 l5.1953 -14.111 l3.584 0 l5.1953 14.111 l-2.998 0 z M103.193378125 14.6387 l4.209 0 l-2.0996 -5.9863 z M120.273425 5.888999999999999 c2.7637 0 4.4824 2.0508 4.4824 4.5605 c0 2.5684 -1.7188 4.4922 -4.4824 4.4922 l-2.9395 0 l0 5.0586 l-2.9297 0 l0 -14.111 l5.8691 0 z M119.785125 12.4902 c1.4648 0 2.1484 -0.81055 2.1484 -2.0801 c0 -1.2207 -0.68359 -2.0703 -2.1484 -2.0703 l-2.4512 0 l0 4.1504 l2.4512 0 z"></path></g>
			</g>
		</svg>
	